<?xml version="1.0" standalone="no"?>
<!DOCTYPE svg PUBLIC "-//W3C//DTD SVG 20010904//EN"
 "http://www.w3.org/TR/2001/REC-SVG-20010904/DTD/svg10.dtd">
<svg version="1.0" xmlns="http://www.w3.org/2000/svg"
 width="374.000000pt" height="80.000000pt" viewBox="0 0 374.000000 80.000000"
 preserveAspectRatio="xMidYMid meet">

<g transform="translate(0.000000,80.000000) scale(0.100000,-0.100000)"
fill="#000000" stroke="none">
<path d="M1996 741 c-9 -10 -24 -50 -34 -90 -15 -62 -20 -71 -40 -71 -32 0
-62 -18 -62 -36 0 -23 29 -28 50 -9 28 25 32 15 20 -40 -12 -56 -62 -120 -130
-170 -69 -51 -80 -48 -80 24 0 54 2 59 24 65 41 10 86 71 86 116 0 64 -52 85
-142 58 -48 -14 -70 -40 -92 -113 -19 -59 -64 -106 -102 -104 -18 0 -54 47
-133 174 -35 58 -57 67 -86 39 -19 -20 -14 -52 22 -130 16 -36 23 -67 21 -95
-3 -42 -4 -43 -61 -62 -55 -18 -127 -72 -127 -95 0 -6 11 -24 24 -39 23 -26
30 -28 113 -31 l88 -3 52 53 c29 29 59 71 66 93 10 30 25 46 59 66 l45 27 12
-38 c6 -21 26 -51 43 -65 28 -24 39 -27 84 -23 63 5 109 37 162 111 l37 51 6
-46 c8 -56 21 -80 55 -107 51 -40 109 -24 183 53 l45 45 16 -38 c31 -68 99
-101 143 -69 9 7 32 37 50 67 l34 53 7 -41 c7 -45 36 -81 64 -81 9 0 35 10 57
23 32 18 47 38 80 104 60 124 83 103 60 -54 -6 -42 -4 -58 9 -78 54 -82 169
-38 257 97 l37 58 7 -37 c15 -82 54 -123 118 -123 34 0 47 8 108 66 44 43 74
82 85 111 21 53 12 66 -18 27 -38 -49 -141 -154 -151 -154 -10 0 -2 203 9 221
3 5 21 9 40 9 45 0 79 32 64 60 -14 27 -29 25 -40 -5 -7 -18 -17 -25 -35 -25
-29 0 -29 -2 -10 75 8 33 14 72 15 87 0 54 -85 80 -115 35 -8 -13 -22 -53 -31
-90 -15 -60 -20 -67 -41 -67 -33 0 -63 -17 -63 -36 0 -23 29 -28 50 -9 27 24
31 17 24 -36 -5 -34 -23 -66 -78 -138 -106 -141 -127 -146 -108 -29 13 85 7
97 -65 124 -41 16 -44 20 -39 45 3 18 0 34 -10 44 -21 20 -28 19 -61 -9 -27
-24 -27 -26 -12 -53 15 -27 14 -30 -29 -100 -53 -88 -72 -94 -72 -22 0 76 -21
109 -72 109 -31 0 -54 -27 -69 -85 -11 -40 -57 -114 -71 -115 -11 0 -10 69 2
110 5 19 26 58 46 87 42 62 36 83 -25 83 -49 0 -92 -28 -139 -92 -22 -29 -68
-84 -103 -122 -58 -63 -63 -66 -71 -47 -4 12 -3 67 4 122 l11 99 37 0 c47 0
73 19 68 50 -4 33 -26 36 -38 6 -7 -19 -17 -26 -36 -26 -29 0 -29 -2 -3 118
13 63 13 64 -11 83 -32 24 -72 24 -94 0z m-211 -249 c-23 -43 -55 -55 -55 -22
0 24 15 56 39 83 15 18 16 18 25 -3 8 -17 5 -31 -9 -58z m-475 -278 c-18 -32
-62 -49 -90 -34 -33 18 -20 41 40 73 l55 29 3 -23 c2 -12 -2 -32 -8 -45z"/>
<path d="M643 730 c-23 -5 -54 -15 -70 -24 -66 -34 -149 -139 -136 -173 10
-25 31 -13 52 30 12 25 42 59 73 82 47 36 58 40 123 43 83 5 111 -11 102 -57
-24 -121 -121 -251 -187 -251 -17 0 -1 68 33 137 26 53 28 64 17 78 -10 12
-24 15 -48 11 -84 -13 -120 -101 -147 -348 -4 -32 -11 -61 -17 -64 -17 -10
-31 13 -33 53 -1 49 -29 53 -33 5 -3 -26 3 -39 31 -67 30 -30 42 -35 81 -35
57 0 68 16 86 120 7 41 14 78 16 82 3 4 19 1 37 -7 32 -13 32 -14 37 -94 6
-90 29 -134 71 -139 26 -2 129 52 129 68 0 17 -25 11 -61 -15 l-34 -26 -6 83
c-3 46 -11 94 -18 108 -11 24 -9 29 37 75 37 37 54 64 66 105 29 97 31 132 6
163 -40 51 -122 74 -207 57z"/>
<path d="M983 587 c-44 -16 -58 -33 -82 -95 -37 -94 -23 -185 35 -231 24 -19
38 -22 81 -19 64 6 107 36 169 121 57 79 61 121 4 49 -45 -56 -128 -122 -154
-122 -13 0 -16 11 -16 59 0 54 2 59 24 65 13 3 38 22 55 41 39 45 43 105 9
129 -26 19 -79 20 -125 3z m115 -53 c3 -25 -34 -84 -53 -84 -21 0 -19 39 5 78
22 35 43 38 48 6z"/>
</g>
</svg>
